<svg id="visual" viewBox="0 0 1400 1000" width="1400" height="1000" xmlns="http://www.w3.org/2000/svg" xmlns:xlink="http://www.w3.org/1999/xlink" version="1.1"><rect x="0" y="0" width="1400" height="1000" fill="#f0f8ff"></rect><defs><linearGradient id="grad1_0" x1="28.6%" y1="0%" x2="100%" y2="100%"><stop offset="22.000000000000004%" stop-color="#f0f8ff" stop-opacity="1"></stop><stop offset="78%" stop-color="#f0f8ff" stop-opacity="1"></stop></linearGradient></defs><defs><linearGradient id="grad2_0" x1="0%" y1="0%" x2="71.4%" y2="100%"><stop offset="22.000000000000004%" stop-color="#f0f8ff" stop-opacity="1"></stop><stop offset="78%" stop-color="#f0f8ff" stop-opacity="1"></stop></linearGradient></defs><g transform="translate(1400, 0)"><path d="M0 344.1C-60.5 335.3 -121 326.5 -172 298C-223.1 269.5 -264.7 221.4 -291.9 168.5C-319 115.6 -331.5 57.8 -344.1 0L0 0Z" fill="#ffc107"></path></g><g transform="translate(0, 1000)"><path d="M0 -344.1C56.4 -329.2 112.9 -314.3 166 -287.5C219.1 -260.7 268.9 -222 298 -172C327.1 -122.1 335.6 -61.1 344.1 0L0 0Z" fill="#ffc107"></path></g></svg>