<svg xmlns="http://www.w3.org/2000/svg" xmlns:xlink="http://www.w3.org/1999/xlink" version="1.1" id="Layer_1" x="0px" y="0px" viewBox="0 0 1080 1080" style="enable-background:new 0 0 1080 1080;" xml:space="preserve">
<style type="text/css">
	.st0{fill:none;stroke:#D3D3D3;stroke-miterlimit:10;stroke-dasharray:12.1683,12.1683;}
	.st1{fill:#F0FAFF;}
	.st2{fill:#CCEEFF;}
	.st3{fill:#B0E1FF;}
	.st4{fill:#F2F2F2;}
	.st5{fill:#1371B7;}
	.st6{fill:#0B577C;}
	.st7{fill:#FFA42C;}
	.st8{fill:#FFBB69;}
	.st9{fill:#FFD4B0;}
	.st10{fill:#FFC99C;}
	.st11{fill:#FFE3CA;}
	.st12{fill:#FFFFFF;}
</style>
<g>
	<circle class="st0" cx="221" cy="230.3" r="89.1"/>
</g>
<g>
	<path class="st1" d="M298.3,176.5c-27.6,11.9-55.1,26.4-74.4,49.3s-29,55.6-17.4,83.1c15.5,36.7,64.6,58,64.8,97.8   c0.2,28.5-26.5,50.2-53.4,60.5c-26.9,10.3-56.6,14.1-81.1,29.2c-36.9,22.8-54.2,67-61.3,109.4c-7.4,44-4.4,94.1,27.2,126   c39.2,39.7,104.1,35.2,159.7,26.7c74.1-11.3,147.9-24.6,221.7-37.8c161.8-29.1,323.5-58.2,485.3-87.2c17.3-3.1,35.4-6.5,49.5-17   c28-20.7,30.4-63.6,14.1-94.1S986.6,471,956.7,453c-29.9-18-61.5-35-83.8-61.5c-22.4-26.5-33.5-65.8-16.6-96.1   c14.4-25.6,45.2-39.3,58.6-65.4c17.7-34.4-2.7-78.2-34.8-100.2C848,108,444.3,113.6,298.3,176.5z"/>
</g>
<g>
	<g>
		<path class="st2" d="M1004.7,659.1c35.9,19.5,60.3,57.5,60.3,101.3c0,63.6-51.5,115.1-115.1,115.1c-49,0-90.9-30.7-107.5-73.9    L1004.7,659.1z"/>
	</g>
	<g>
		<circle class="st3" cx="826.7" cy="620" r="182.2"/>
	</g>
	<g>
		<g>
			<path class="st2" d="M826.7,980.1c-2.3,0-4.2-1.9-4.2-4.2V620c0-2.3,1.9-4.2,4.2-4.2c2.3,0,4.2,1.9,4.2,4.2v356     C830.9,978.2,829,980.1,826.7,980.1z"/>
		</g>
		<g>
			<path class="st2" d="M826.7,718.5c-1.1,0-2.1-0.4-2.9-1.2l-51-51c-1.6-1.6-1.6-4.3,0-5.9c1.6-1.6,4.3-1.6,5.9,0l51,51     c1.6,1.6,1.6,4.3,0,5.9C828.9,718.1,827.8,718.5,826.7,718.5z"/>
		</g>
		<g>
			<path class="st2" d="M826.7,765.9c-1.1,0-2.1-0.4-2.9-1.2l-51-51c-1.6-1.6-1.6-4.3,0-5.9c1.6-1.6,4.3-1.6,5.9,0l51,51     c1.6,1.6,1.6,4.3,0,5.9C828.9,765.5,827.8,765.9,826.7,765.9z"/>
		</g>
		<g>
			<path class="st2" d="M949.2,980c-2-0.4-3.4-2.3-3.4-4.3V789.2c0-2.3,1.7-4.3,3.9-4.4c2.4-0.1,4.4,1.8,4.4,4.2v187     C954.1,978.5,951.8,980.5,949.2,980z"/>
		</g>
		<g>
			<path class="st2" d="M949.9,816.3c-1.1,0-2.1-0.4-2.9-1.2c-1.6-1.6-1.6-4.3,0-5.9l36.8-36.8c1.6-1.6,4.3-1.6,5.9,0     c1.6,1.6,1.6,4.3,0,5.9L952.9,815C952.1,815.8,951,816.3,949.9,816.3z"/>
		</g>
		<g>
			<path class="st2" d="M949.9,850.4c-1.1,0-2.1-0.4-2.9-1.2c-1.6-1.6-1.6-4.3,0-5.9l36.8-36.8c1.6-1.6,4.3-1.6,5.9,0     c1.6,1.6,1.6,4.3,0,5.9l-36.8,36.8C952.1,850,951,850.4,949.9,850.4z"/>
		</g>
	</g>
</g>
<path class="st4" d="M1034.1,1048.7H45.9c-6.4,0-11.6-5.2-11.6-11.6V980c0-6.4,5.2-11.6,11.6-11.6h988.3c6.4,0,11.6,5.2,11.6,11.6  v57.1C1045.7,1043.5,1040.5,1048.7,1034.1,1048.7z"/>
<g>
	<path class="st5" d="M195.5,943.3c0.6,14.6,20.8,45.2,17.4,51s-38.2,15-45.6,0c-7.3-15,6.7-40.3,6.7-51   C174.2,932.7,195.5,943.3,195.5,943.3z"/>
	<path class="st5" d="M253.8,946.4c8.8,15.3,54.7,37,57.9,44.9s-75.3-0.3-92-20.4c6-18.1,10.7-32.5,10.7-32.5L253.8,946.4z"/>
	<path class="st6" d="M220.1,559c-10.4,7.5-37.9,70.6-28.8,222.9c-25.2,90.6-18.3,168.8-18.3,168.8h24c0,0,24.4-149.8,29.7-161.1   s58.8-171.9,38.9-230.3S220.1,559,220.1,559z"/>
	<path class="st6" d="M250.5,540.8c-10.4,7.5-15.9,82-6.8,234.4c-25.2,90.6-17.3,175.6-17.3,175.6h26.9c0,0,20.5-156.6,25.8-167.9   c5.3-11.3,58.8-165.1,38.9-223.5C298.1,500.9,250.5,540.8,250.5,540.8z"/>
	<path class="st7" d="M288.3,393.4c0,0,34.9,19,37.9,45.9c3,27,1.5,99.5-3,104.5s-13.9,12.1-17.6,3.5S288.3,393.4,288.3,393.4z"/>
	<path class="st7" d="M191.2,383.5c6.7-9.6,34.9-9.9,34.9-9.9c12.1-3.4,23.2-5.1,23.2-5.1s45,25.3,48.1,33.7   c3,8.4,10.6,48.9,16.7,59c3.3,5.5-4.7,18.4-12.7,28.9c-7.5,9.9-7.9,23.4-0.9,33.7l13.6,20.1c0,0-59.2,27-94,15.2   c-4.6-38.8-13.5-101.3-27.2-108c-41,79,13.1,129.6,13.1,129.6s-2.6,5.7-10.3,12.9C81.8,519.2,184.6,393,191.2,383.5z"/>
	<polygon class="st5" points="273.9,468.2 298.4,478.4 313.5,433.3 289,423.2  "/>
	<path class="st8" d="M314.1,462.9c10.6,27,27.3,91-4.6,91c-7.6,0-9.1-79.2-9.1-86C305,462.9,314.1,462.9,314.1,462.9z"/>
	<path class="st9" d="M314.1,462.9c0,0-9.1-20.2-15.2-18.5s-24.3,5.1-24.3,10.1s25.8,13.5,25.8,13.5h9.1L314.1,462.9z"/>
	<path class="st9" d="M202.4,605.1c-9.7-4.6-16.6-16.6,5.8-25.1c10.7-4,12.4,24.4,12.4,24.4L202.4,605.1z"/>
	<g>
		<path class="st5" d="M230.6,295.7c-3.7,16.2,12.6,14.2,28.8,17.8s32.2-6.4,35.9-22.6s-6.4-32.2-22.6-35.9    C256.5,251.3,234.2,279.5,230.6,295.7z"/>
		<g>
			<path class="st7" d="M291.9,374c0-9.1,3.7-16,8.5-16s8.5,6.9,8.5,16s-3.7,16-8.5,16S291.9,383.1,291.9,374z M294.9,374     c0,7.7,2.9,13,5.5,13s5.5-5.3,5.5-13s-2.9-13-5.5-13S294.9,366.3,294.9,374z"/>
		</g>
		<g>
			<path class="st5" d="M315.9,359c19-16,48-55-22-68s-34,64-34,64L315.9,359z"/>
			<path class="st10" d="M263.3,345.7c-4.6,8.4-31.4,33.3-31.4,33.3l38,77.1l-2.1-69.1l7.6-24.4L263.3,345.7z"/>
			<path class="st11" d="M267.9,325c-9.1,16.7-6.1,46.3,7.5,55.5c13.6,9.2,34.2-4.6,43.3-21.3c9.1-16.7,5.5-37.7-8.1-46.9     S277,308.3,267.9,325z"/>
			<path class="st5" d="M329.3,331.4c-18.2,18.5-63.7,3.4-63.7-8.4c0-11.8,12.1-28.7,12.1-28.7h21.2L329.3,331.4z"/>
			<ellipse class="st11" cx="267.8" cy="333.1" rx="5.3" ry="10.1"/>
		</g>
		<g>
			<path class="st7" d="M254.9,353c0-9.1,3.7-16,8.5-16s8.5,6.9,8.5,16s-3.7,16-8.5,16S254.9,362.1,254.9,353z M257.9,353     c0,7.7,2.9,13,5.5,13s5.5-5.3,5.5-13s-2.9-13-5.5-13S257.9,345.3,257.9,353z"/>
		</g>
	</g>
</g>
<g>
	<path class="st3" d="M857.6,317.2H463.7c-6.6,0-12-5.4-12-12v-90.5c0-6.6,5.4-12,12-12h393.9c6.6,0,12,5.4,12,12v90.5   C869.6,311.8,864.2,317.2,857.6,317.2z"/>
	<path class="st3" d="M850.9,304.7c1.4,5.4,0.3,17.3,15.2,26.1c-16.2,0-31.4-9.6-31.4-26C837.5,295.2,850.9,304.7,850.9,304.7z"/>
</g>
<g>
	<path class="st5" d="M389.2,424.1h129.3c4.3,0,7.9-3.5,7.9-7.9v-59.4c0-4.3-3.5-7.9-7.9-7.9H389.2c-4.3,0-7.9,3.5-7.9,7.9v59.4   C381.3,420.6,384.9,424.1,389.2,424.1z"/>
	<path class="st5" d="M400,411.6c-1.4,5.4-0.3,17.3-15.2,26.1c16.2,0,31.4-9.6,31.4-26C413.5,402.2,400,411.6,400,411.6z"/>
</g>
<circle class="st12" cx="502.9" cy="261.2" r="30.9"/>
<path class="st12" d="M829.7,240.4H562.6c-2.8,0-5-2.3-5-5v0c0-2.8,2.3-5,5-5h267.1c2.8,0,5,2.3,5,5v0  C834.7,238.1,832.5,240.4,829.7,240.4z"/>
<path class="st12" d="M829.7,265H562.6c-2.8,0-5-2.3-5-5l0,0c0-2.8,2.3-5,5-5h267.1c2.8,0,5,2.3,5,5l0,0  C834.7,262.7,832.5,265,829.7,265z"/>
<path class="st12" d="M704.4,289.6H561.3c-2,0-3.7-1.7-3.7-3.7v-2.6c0-2,1.7-3.7,3.7-3.7h143.1c2,0,3.7,1.7,3.7,3.7v2.6  C708.1,288,706.4,289.6,704.4,289.6z"/>
<g>
	<circle class="st12" cx="420.7" cy="386.6" r="10.8"/>
	<circle class="st12" cx="453.8" cy="386.6" r="10.8"/>
	<circle class="st12" cx="487" cy="386.6" r="10.8"/>
</g>
</svg>